<?xml version="1.0" encoding="utf-8"?>
<!-- Generator: Adobe Illustrator 24.0.0, SVG Export Plug-In . SVG Version: 6.00 Build 0)  -->
<svg version="1.1" id="Layer_1" xmlns="http://www.w3.org/2000/svg" xmlns:xlink="http://www.w3.org/1999/xlink" x="0px" y="0px"
	 viewBox="0 0 100 100" style="enable-background:new 0 0 100 100;" xml:space="preserve">
<g>
	<path d="M40,3c20.4,0,37,16.6,37,37S60.4,77,40,77S3,60.4,3,40S19.6,3,40,3 M40,0C17.91,0,0,17.91,0,40s17.91,40,40,40
		s40-17.91,40-40S62.09,0,40,0L40,0z"/>
</g>
<g>
	<path d="M71.72,71.96L96.76,97l-0.13,0.13L71.59,72.09L71.72,71.96C71.71,71.97,71.71,71.97,71.72,71.96L71.72,71.96 M71.72,68.97
		c-0.77,0-1.54,0.29-2.12,0.88l-0.13,0.13c-1.17,1.17-1.17,3.08,0,4.24l25.04,25.04c0.58,0.58,1.35,0.88,2.12,0.88
		c0.77,0,1.54-0.29,2.12-0.88l0.13-0.13c1.17-1.17,1.17-3.08,0-4.24L73.84,69.84C73.26,69.26,72.49,68.97,71.72,68.97L71.72,68.97z"
		/>
</g>
</svg>
