<?xml version="1.0" encoding="utf-8"?>
<!-- Generator: Adobe Illustrator 24.0.0, SVG Export Plug-In . SVG Version: 6.00 Build 0)  -->
<svg version="1.1" id="Layer_1" xmlns="http://www.w3.org/2000/svg" xmlns:xlink="http://www.w3.org/1999/xlink" x="0px" y="0px"
	 viewBox="0 0 100 40" style="enable-background:new 0 0 100 40;" xml:space="preserve">
<g>
	<path d="M15.54,26.69v-4.31h3.3V5.5h-3.3V1.19h12.28V5.5h-3.33v16.88h3.33v4.31H15.54z"/>
	<path d="M36.96,26.85L30.76,5.5h-2.3V1.19h9.8V5.5h-2.25l3.53,12.25L42.85,5.5h-1.97V1.19h7.81V5.5h-2.02l3.56,12.25L53.66,5.5
		h-2.17V1.19h8.7V5.5h-2.36l-6,21.36h-4.06l-3.42-11.64l-3.23,11.64H36.96z"/>
	<path d="M79.73,1.19h3.67v8.98h-3.67c-1.04-3.23-2.85-4.84-5.42-4.84c-2.13,0-3.73,0.85-4.82,2.55c-1.09,1.7-1.63,3.73-1.63,6.1
		c0,2.48,0.58,4.49,1.73,6.02c1.15,1.53,2.62,2.3,4.4,2.3c1.46,0,2.73-0.58,3.83-1.74c1.09-1.16,1.83-2.77,2.22-4.84l4.28,2.39
		C82.68,24.04,79.1,27,73.57,27c-3.91,0-6.85-1.23-8.84-3.7c-1.98-2.47-2.98-5.59-2.98-9.37c0-2.69,0.52-5.04,1.55-7.06
		s2.42-3.53,4.16-4.56c1.74-1.02,3.66-1.53,5.74-1.53c2.59,0,4.77,0.79,6.52,2.38V1.19z"/>
</g>
<g>
	<path d="M0.35,38.38c0.58,0.22,1.42,0.41,2.31,0.41c1.32,0,2.09-0.44,2.09-1.07c0-0.59-0.53-0.92-1.88-1.24
		c-1.63-0.36-2.63-0.89-2.63-1.77c0-0.98,1.29-1.7,3.23-1.7c1.02,0,1.76,0.15,2.21,0.31l-0.35,0.66c-0.33-0.11-0.99-0.3-1.89-0.3
		c-1.36,0-1.88,0.51-1.88,0.94c0,0.59,0.61,0.87,1.98,1.21c1.69,0.41,2.55,0.92,2.55,1.84c0,0.97-1.14,1.8-3.49,1.8
		c-0.96,0-2.01-0.18-2.55-0.4L0.35,38.38z"/>
	<path d="M14.8,39.16c-0.47,0.15-1.42,0.3-2.63,0.3c-2.81,0-4.93-1.11-4.93-3.17c0-1.96,2.12-3.29,5.21-3.29
		c1.24,0,2.03,0.17,2.37,0.28l-0.31,0.66c-0.49-0.15-1.18-0.26-2.01-0.26c-2.34,0-3.89,0.94-3.89,2.58c0,1.53,1.41,2.52,3.83,2.52
		c0.78,0,1.58-0.1,2.1-0.26L14.8,39.16z"/>
	<path d="M17.7,33.1v2.62h4.83V33.1h1.3v6.26h-1.3v-2.93H17.7v2.93h-1.29V33.1H17.7z"/>
	<path d="M27.67,37.39l-1.04,1.97h-1.33l3.39-6.26h1.55l3.4,6.26h-1.38l-1.07-1.97H27.67z M30.95,36.76l-0.98-1.8
		c-0.22-0.41-0.37-0.78-0.52-1.14h-0.03c-0.15,0.37-0.31,0.75-0.5,1.13l-0.98,1.81H30.95z"/>
	<path d="M35.12,33.1h5.37v0.68h-4.09v2.08h3.77v0.67h-3.77v2.83h-1.29V33.1z"/>
	<path d="M42.33,33.1h5.37v0.68h-4.09v2.08h3.77v0.67h-3.77v2.83h-1.29V33.1z"/>
	<path d="M50.82,33.1v2.62h4.83V33.1h1.3v6.26h-1.3v-2.93h-4.83v2.93h-1.29V33.1H50.82z"/>
	<path d="M60.8,37.39l-1.04,1.97h-1.33l3.39-6.26h1.55l3.4,6.26H65.4l-1.07-1.97H60.8z M64.07,36.76l-0.98-1.8
		c-0.22-0.41-0.37-0.78-0.52-1.14h-0.03c-0.15,0.37-0.31,0.75-0.5,1.13l-0.98,1.81H64.07z"/>
	<path d="M69.11,33.1v3.7c0,1.4,0.99,2,2.32,2c1.48,0,2.43-0.61,2.43-2v-3.7h1.3v3.65c0,1.92-1.61,2.71-3.77,2.71
		c-2.04,0-3.58-0.73-3.58-2.67V33.1H69.11z"/>
	<path d="M77.22,38.38c0.58,0.22,1.42,0.41,2.31,0.41c1.32,0,2.09-0.44,2.09-1.07c0-0.59-0.53-0.92-1.88-1.24
		c-1.63-0.36-2.63-0.89-2.63-1.77c0-0.98,1.29-1.7,3.23-1.7c1.02,0,1.76,0.15,2.21,0.31l-0.36,0.66c-0.32-0.11-0.99-0.3-1.89-0.3
		c-1.36,0-1.88,0.51-1.88,0.94c0,0.59,0.61,0.87,1.98,1.21c1.69,0.41,2.55,0.92,2.55,1.84c0,0.97-1.14,1.8-3.49,1.8
		c-0.96,0-2.01-0.18-2.54-0.4L77.22,38.38z"/>
	<path d="M89.86,36.43h-3.88v2.26h4.32v0.68H84.7V33.1h5.39v0.68h-4.1v1.98h3.88V36.43z"/>
	<path d="M91.98,39.36V33.1h1.41l3.2,3.17c0.74,0.73,1.32,1.39,1.79,2.03l0.03-0.01c-0.12-0.84-0.15-1.6-0.15-2.57V33.1h1.21v6.26
		h-1.3L95,36.19c-0.7-0.7-1.36-1.41-1.87-2.09l-0.04,0.01c0.07,0.79,0.1,1.54,0.1,2.58v2.67H91.98z"/>
</g>
</svg>
