<?xml version="1.0" encoding="utf-8"?>
<!-- Generator: Adobe Illustrator 24.0.0, SVG Export Plug-In . SVG Version: 6.00 Build 0)  -->
<svg version="1.1" id="Layer_1" xmlns="http://www.w3.org/2000/svg" xmlns:xlink="http://www.w3.org/1999/xlink" x="0px" y="0px"
	 viewBox="0 0 100 100" style="enable-background:new 0 0 100 100;" xml:space="preserve">
<style type="text/css">
	.st0{display:none;}
	.st1{display:inline;}
	.st2{fill:#B19C5E;}
</style>
<g class="st0">
	<path class="st1" d="M40,3c20.4,0,37,16.6,37,37S60.4,77,40,77S3,60.4,3,40S19.6,3,40,3 M40,0C17.91,0,0,17.91,0,40s17.91,40,40,40
		s40-17.91,40-40S62.09,0,40,0L40,0z"/>
</g>
<g class="st0">
	<path class="st1" d="M71.72,71.96L96.76,97l-0.13,0.13L71.59,72.09L71.72,71.96C71.71,71.97,71.71,71.97,71.72,71.96L71.72,71.96
		 M71.72,68.97c-0.77,0-1.54,0.29-2.12,0.88l-0.13,0.13c-1.17,1.17-1.17,3.08,0,4.24l25.04,25.04c0.58,0.58,1.35,0.88,2.12,0.88
		c0.77,0,1.54-0.29,2.12-0.88l0.13-0.13c1.17-1.17,1.17-3.08,0-4.24L73.84,69.84C73.26,69.26,72.49,68.97,71.72,68.97L71.72,68.97z"
		/>
</g>
<g class="st0">
	<path class="st1" d="M49.73,3.5c0.55,0,1.11,0.02,1.66,0.05c13.1,0.81,23.78,11.73,24.32,24.86c0.29,7.16-2.28,13.95-7.24,19.11
		l-1.56,1.63l1.13,1.95L94.54,97H5.13l26.43-45.78l1.14-1.97l-1.58-1.63c-4.76-4.88-7.37-11.32-7.37-18.13
		C23.73,15.16,35.4,3.5,49.73,3.5 M49.73,0.5c-16.02,0-29,12.98-29,29c0,7.87,3.14,15,8.23,20.22L-0.07,100h99.8l-29.1-50.41
		c5.27-5.48,8.42-13.03,8.08-21.31c-0.6-14.7-12.45-26.82-27.13-27.73C50.96,0.52,50.34,0.5,49.73,0.5L49.73,0.5z"/>
</g>
<g>
	<path class="st2" d="M49.83,7.17l12.59,26.94l0.68,1.45l1.58,0.24l28.47,4.37L72.44,61.49l-1.05,1.08l0.24,1.49l4.85,29.89
		l-25.2-13.99l-1.46-0.81l-1.46,0.81l-25.2,13.99l4.85-29.89l0.24-1.49l-1.05-1.08L6.51,40.17l28.47-4.37l1.58-0.24l0.68-1.45
		L49.83,7.17 M49.83,0.08l-15.3,32.75L0.31,38.09l24.76,25.49l-5.85,36l30.61-17l30.61,17l-5.85-36l24.76-25.49l-34.22-5.25
		L49.83,0.08L49.83,0.08z"/>
</g>
</svg>
